<svg xmlns="http://www.w3.org/2000/svg" viewBox="0 0 96 96" fill="none">
  <defs>
    <linearGradient id="heart" x1="22" y1="23" x2="75" y2="76">
      <stop stop-color="#fff0bc"/>
      <stop offset=".45" stop-color="#d97bff"/>
      <stop offset="1" stop-color="#5bd2ff"/>
    </linearGradient>
    <filter id="glow" x="-40%" y="-40%" width="180%" height="180%">
      <feGaussianBlur stdDeviation="4"/>
    </filter>
  </defs>
  <path d="M48 75S19 58 19 37c0-10 7-18 17-18 6 0 10 3 12 7 2-4 7-7 13-7 10 0 17 8 17 18 0 21-30 38-30 38Z" fill="#241048" stroke="url(#heart)" stroke-width="4" stroke-linejoin="round"/>
  <path d="M48 69S27 55 27 39c0-7 5-12 12-12 5 0 8 3 9 7 1-4 5-7 10-7 7 0 12 5 12 12 0 16-22 30-22 30Z" stroke="#ffd98a" stroke-width="1.3" opacity=".5"/>
  <path d="M48 75S19 58 19 37c0-10 7-18 17-18 6 0 10 3 12 7 2-4 7-7 13-7 10 0 17 8 17 18 0 21-30 38-30 38Z" stroke="#a05cff" stroke-width="7" opacity=".24" filter="url(#glow)"/>
</svg>
